<svg width="719" height="525" viewBox="0 0 719 525" fill="none" xmlns="http://www.w3.org/2000/svg">
<path fill-rule="evenodd" clip-rule="evenodd" d="M34.87 425.717C34.87 425.717 -9.09634 437.684 1.70902 484.461C7.3554 508.905 48.7101 514.557 106.682 514.557C108.043 514.557 109.386 514.547 110.737 514.537C111.979 514.996 113.23 515.445 114.499 515.863C182.632 538.236 275.65 515.904 359.776 487.817C425.638 465.832 574.761 469.78 621.302 469.78C782.27 469.78 695.717 425.717 695.717 425.717H34.87Z" fill="url(#paint0_linear_203_2749)"/>
<path opacity="0.5" d="M674.4 457.323H275.089V424.769H645.055L674.4 457.323Z" fill="#000640"/>
<path opacity="0.5" fill-rule="evenodd" clip-rule="evenodd" d="M347.509 493.551C347.509 503.355 282.539 511.313 202.395 511.313C122.251 511.313 57.2812 503.365 57.2812 493.551C57.2812 483.747 122.251 475.789 202.395 475.789C282.548 475.799 347.509 483.747 347.509 493.551Z" fill="#000640"/>
<path d="M25.628 428.207H708.168C708.168 428.207 731.802 249.742 626.912 139.56C522.022 29.3777 369.855 114.728 369.855 114.728C369.855 114.728 285.095 -47.4948 160.065 13.8604C-42.3309 113.177 25.628 428.207 25.628 428.207Z" fill="url(#paint1_linear_203_2749)"/>
<path opacity="0.8" d="M142.206 53.0057C142.124 53.0057 142.041 52.9955 141.958 52.9955C129.175 52.9955 118.812 64.4932 118.812 78.6741C118.812 92.8549 129.175 104.353 141.958 104.353C154.741 104.353 165.104 92.8549 165.104 78.6741H142.206V53.0057Z" fill="url(#paint2_linear_203_2749)"/>
<path d="M82.1094 193.192H89.6961V269.177H82.1094V193.192Z" fill="url(#paint3_linear_203_2749)"/>
<path d="M96.75 219.003H104.337V269.187H96.75V219.003Z" fill="url(#paint4_linear_203_2749)"/>
<path d="M111.399 202.639H118.986V269.565H111.399V202.639Z" fill="url(#paint5_linear_203_2749)"/>
<path d="M126.049 196.13H133.636V269.187H126.049V196.13Z" fill="url(#paint6_linear_203_2749)"/>
<path d="M140.688 220.554H148.275V269.187H140.688V220.554Z" fill="url(#paint7_linear_203_2749)"/>
<path d="M155.338 230.093H162.925V269.187H155.338V230.093Z" fill="url(#paint8_linear_203_2749)"/>
<path d="M169.987 200.997H177.574V269.187H169.987V200.997Z" fill="url(#paint9_linear_203_2749)"/>
<path d="M184.628 213.29H192.215V269.187H184.628V213.29Z" fill="url(#paint10_linear_203_2749)"/>
<path d="M199.276 203.466H206.863V269.187H199.276V203.466Z" fill="url(#paint11_linear_203_2749)"/>
<path d="M213.926 224.41H221.513V269.187H213.926V224.41Z" fill="url(#paint12_linear_203_2749)"/>
<path d="M228.575 215.892H236.162V269.187H228.575V215.892Z" fill="url(#paint13_linear_203_2749)"/>
<path d="M231.463 210.423C231.463 210.434 231.307 210.413 231.003 210.362C230.672 210.301 230.231 210.23 229.679 210.128C229.1 210.005 228.373 209.903 227.518 209.811C227.086 209.76 226.626 209.709 226.129 209.648C225.633 209.628 225.108 209.597 224.547 209.566C222.313 209.454 219.563 209.526 216.418 210.056C213.282 210.566 209.742 211.525 206.036 213.188C202.339 214.851 198.458 217.198 194.844 220.523C191.175 223.788 187.975 228.124 184.821 232.848C181.639 237.53 178.392 242.672 173.877 246.814C171.643 248.885 169.104 250.681 166.281 251.905C163.458 253.109 160.313 253.629 157.223 253.139C154.115 252.721 151.237 251.303 148.68 249.548C146.142 247.732 143.889 245.559 141.903 243.203C137.893 238.499 134.987 233.154 131.916 228.379C128.881 223.584 125.681 219.207 121.938 216.055C120.089 214.453 118.076 213.3 116.08 212.362C114.066 211.464 112.025 210.913 110.066 210.566C106.121 209.913 102.461 210.291 99.38 211.076C96.2901 211.872 93.7704 213.127 91.8208 214.321C89.908 215.606 88.5194 216.779 87.6458 217.646C87.232 218.065 86.9009 218.401 86.6526 218.646C86.4227 218.871 86.3032 218.983 86.294 218.973C86.2848 218.963 86.3952 218.84 86.6067 218.595C86.8458 218.33 87.1584 217.983 87.563 217.544C88.4183 216.636 89.7885 215.422 91.7013 214.086C93.6508 212.841 96.1798 211.535 99.3064 210.689C102.415 209.862 106.121 209.434 110.139 210.066C112.135 210.403 114.213 210.944 116.273 211.852C118.305 212.79 120.384 213.974 122.269 215.586C126.095 218.769 129.341 223.186 132.403 227.991C135.493 232.786 138.408 238.091 142.362 242.713C144.321 245.039 146.547 247.161 149.02 248.936C151.522 250.65 154.308 252.027 157.306 252.425C160.285 252.895 163.311 252.395 166.051 251.232C168.792 250.048 171.275 248.293 173.473 246.263C177.905 242.203 181.142 237.112 184.342 232.429C185.942 230.083 187.524 227.798 189.198 225.696C190.044 224.655 190.872 223.625 191.782 222.707L193.115 221.319C193.566 220.881 194.035 220.472 194.495 220.044C198.173 216.698 202.109 214.341 205.852 212.698C209.604 211.046 213.181 210.117 216.354 209.638C219.526 209.148 222.294 209.107 224.538 209.26C225.099 209.301 225.633 209.332 226.129 209.373C226.626 209.444 227.086 209.505 227.518 209.566C228.382 209.679 229.1 209.801 229.679 209.944C230.231 210.077 230.672 210.168 230.994 210.25C231.316 210.372 231.463 210.413 231.463 210.423ZM73.7506 274.482C73.5758 274.482 73.4287 252.813 73.4287 226.094C73.4287 199.364 73.5667 177.695 73.7506 177.695C73.9253 177.695 74.0724 199.354 74.0724 226.094C74.0724 252.813 73.9345 274.482 73.7506 274.482ZM239.252 274.482C239.252 274.676 203.268 274.839 158.888 274.839C114.489 274.839 78.5141 274.686 78.5141 274.482C78.5141 274.288 114.489 274.125 158.888 274.125C203.268 274.125 239.252 274.288 239.252 274.482ZM92.9243 280.461C92.9243 280.654 90.4046 280.818 87.2964 280.818C84.1881 280.818 81.6684 280.654 81.6684 280.461C81.6684 280.267 84.1881 280.103 87.2964 280.103C90.4046 280.103 92.9243 280.267 92.9243 280.461ZM111.602 280.767C111.602 280.96 108.585 281.124 104.87 281.124C101.155 281.124 98.1385 280.96 98.1385 280.767C98.1385 280.573 101.155 280.41 104.87 280.41C108.585 280.41 111.602 280.573 111.602 280.767ZM127.529 280.767C127.529 280.96 124.513 281.124 120.798 281.124C117.082 281.124 114.066 280.96 114.066 280.767C114.066 280.573 117.082 280.41 120.798 280.41C124.522 280.41 127.529 280.573 127.529 280.767ZM143.457 280.767C143.457 280.96 140.44 281.124 136.725 281.124C133.01 281.124 129.994 280.96 129.994 280.767C129.994 280.573 133.001 280.41 136.725 280.41C140.45 280.41 143.457 280.573 143.457 280.767ZM159.393 280.767C159.393 280.96 156.377 281.124 152.662 281.124C148.947 281.124 145.93 280.96 145.93 280.767C145.93 280.573 148.947 280.41 152.662 280.41C156.377 280.41 159.393 280.573 159.393 280.767ZM175.321 280.767C175.321 280.96 172.305 281.124 168.589 281.124C164.874 281.124 161.858 280.96 161.858 280.767C161.858 280.573 164.874 280.41 168.589 280.41C172.305 280.41 175.321 280.573 175.321 280.767ZM191.249 280.767C191.249 280.96 188.232 281.124 184.517 281.124C180.802 281.124 177.786 280.96 177.786 280.767C177.786 280.573 180.802 280.41 184.517 280.41C188.232 280.41 191.249 280.573 191.249 280.767ZM207.176 280.767C207.176 280.96 204.16 281.124 200.445 281.124C196.729 281.124 193.713 280.96 193.713 280.767C193.713 280.573 196.729 280.41 200.445 280.41C204.16 280.41 207.176 280.573 207.176 280.767ZM223.104 280.767C223.104 280.96 220.087 281.124 216.372 281.124C212.657 281.124 209.641 280.96 209.641 280.767C209.641 280.573 212.657 280.41 216.372 280.41C220.097 280.41 223.104 280.573 223.104 280.767ZM239.031 280.767C239.031 280.96 236.015 281.124 232.3 281.124C228.585 281.124 225.568 280.96 225.568 280.767C225.568 280.573 228.585 280.41 232.3 280.41C236.024 280.41 239.031 280.573 239.031 280.767Z" fill="white"/>
<path d="M133.957 229.287C133.938 229.195 134.61 229.307 134.867 230.266C134.977 230.715 134.977 231.348 134.564 231.899C134.159 232.46 133.35 232.582 132.743 232.256C132.127 231.96 131.667 231.215 131.777 230.501C131.869 229.807 132.301 229.379 132.678 229.175C133.497 228.746 134.021 229.226 133.947 229.277C133.92 229.379 133.451 229.185 132.908 229.603C132.651 229.807 132.393 230.164 132.366 230.572C132.329 230.97 132.586 231.399 133.009 231.613C133.432 231.817 133.892 231.756 134.141 231.46C134.398 231.174 134.472 230.715 134.435 230.368C134.352 229.644 133.901 229.389 133.957 229.287ZM207.277 210.944C207.277 210.903 207.424 210.842 207.709 210.893C207.985 210.944 208.38 211.148 208.702 211.597C209.024 212.025 209.263 212.8 208.969 213.576C208.684 214.321 207.966 214.902 207.111 214.902C206.219 214.902 205.566 214.106 205.382 213.382C205.162 212.627 205.373 211.842 205.741 211.433C206.495 210.597 207.203 210.729 207.185 210.791C207.222 210.903 206.587 211.005 206.09 211.75C205.851 212.107 205.759 212.637 205.934 213.178C206.109 213.708 206.559 214.198 207.12 214.198C207.681 214.208 208.224 213.79 208.435 213.311C208.656 212.821 208.546 212.27 208.334 211.893C207.902 211.097 207.258 211.056 207.277 210.944Z" fill="white"/>
<path d="M208.473 175.471C208.299 175.471 208.151 175.012 208.151 174.451C208.151 173.89 208.299 173.431 208.473 173.431C208.648 173.431 208.795 173.89 208.795 174.451C208.786 175.012 208.648 175.471 208.473 175.471ZM208.473 184.306C208.299 184.306 208.151 183.317 208.151 182.092C208.151 180.868 208.299 179.878 208.473 179.878C208.648 179.878 208.795 180.868 208.795 182.092C208.786 183.317 208.648 184.306 208.473 184.306ZM208.473 193.151C208.299 193.151 208.151 192.162 208.151 190.937C208.151 189.713 208.299 188.724 208.473 188.724C208.648 188.724 208.795 189.713 208.795 190.937C208.786 192.162 208.648 193.151 208.473 193.151ZM208.473 201.997C208.299 201.997 208.151 201.007 208.151 199.783C208.151 198.558 208.299 197.569 208.473 197.569C208.648 197.569 208.795 198.558 208.795 199.783C208.786 201.007 208.648 201.997 208.473 201.997ZM208.473 208.454C208.299 208.454 208.151 207.995 208.151 207.434C208.151 206.873 208.299 206.414 208.473 206.414C208.648 206.414 208.795 206.873 208.795 207.434C208.786 207.995 208.648 208.454 208.473 208.454Z" fill="white"/>
<path d="M261.442 417.178C261.442 417.178 252.062 431.288 220.216 430.441C197.006 429.829 173.997 410.333 173.997 410.333C173.997 410.333 213.384 381.379 261.442 417.178Z" fill="#00759F"/>
<path d="M260.945 418.658C260.945 418.658 241.735 420.953 216.105 388.459C197.428 364.77 194.219 325.696 194.219 325.696C194.219 325.696 250.278 341.081 260.945 418.658Z" fill="#005CB4"/>
<path d="M260.081 418.076C260.081 418.076 242.572 409.017 235.804 366.494C230.865 335.501 246.361 300.222 246.361 300.222C246.361 300.222 287.127 345.57 260.081 418.076Z" fill="#741AAC"/>
<path d="M606.396 425.728C606.396 425.728 615.72 439.755 647.364 438.909C670.428 438.297 693.289 418.923 693.289 418.923C693.289 418.923 654.151 390.153 606.396 425.728Z" fill="#00759F"/>
<path d="M606.884 427.197C606.884 427.197 625.966 429.482 651.439 397.182C670.006 373.646 673.187 334.807 673.187 334.807C673.187 334.807 617.487 350.11 606.884 427.197Z" fill="#005CB4"/>
<path d="M607.748 426.625C607.748 426.625 625.147 417.617 631.869 375.37C636.771 344.57 621.376 309.516 621.376 309.516C621.376 309.516 580.868 354.578 607.748 426.625Z" fill="#741AAC"/>
<path opacity="0.3" d="M89.0898 238.897L257.322 158.015L469.2 433.359L83.7285 254.486" fill="#83FFFF"/>
<path d="M257.322 158.015H611.536V431.675H257.322V158.015Z" fill="url(#paint14_linear_203_2749)"/>
<path d="M282.354 173.951H597.576V323.034H282.354V173.951Z" fill="url(#paint15_linear_203_2749)"/>
<path d="M282.354 331.277H445.915V418.086H282.354V331.277Z" fill="url(#paint16_linear_203_2749)"/>
<path d="M371.004 253.68H387.502V319.392H371.004V253.68Z" fill="#A600A9"/>
<path d="M389.653 241.234H406.151V319.392H389.653V241.234Z" fill="url(#paint17_linear_203_2749)"/>
<path d="M408.377 198.63H424.875V319.402H408.377V198.63Z" fill="#A600A9"/>
<path d="M270.455 192.172C272.496 192.172 274.151 190.336 274.151 188.071C274.151 185.806 272.496 183.97 270.455 183.97C268.413 183.97 266.758 185.806 266.758 188.071C266.758 190.336 268.413 192.172 270.455 192.172Z" fill="url(#paint18_linear_203_2749)"/>
<path d="M270.455 219.952C272.496 219.952 274.151 218.116 274.151 215.851C274.151 213.586 272.496 211.75 270.455 211.75C268.413 211.75 266.758 213.586 266.758 215.851C266.758 218.116 268.413 219.952 270.455 219.952Z" fill="url(#paint19_linear_203_2749)"/>
<path d="M270.455 250.456C272.496 250.456 274.151 248.62 274.151 246.355C274.151 244.09 272.496 242.254 270.455 242.254C268.413 242.254 266.758 244.09 266.758 246.355C266.758 248.62 268.413 250.456 270.455 250.456Z" fill="url(#paint20_linear_203_2749)"/>
<path d="M569.344 362.73C557.013 366.719 557.059 360.373 542.345 357.598C527.64 354.823 523.079 360.373 515.989 366.117C508.908 371.851 497.955 365.842 491.206 363.291C484.446 360.741 474.331 364.75 466.45 371.973C463.866 374.35 460.252 375.687 456.573 376.431V408.619H596.5V341.336C587.451 346.682 579.175 359.547 569.344 362.73Z" fill="url(#paint21_linear_203_2749)"/>
<path d="M569.344 372.187C557.013 376.176 557.059 369.831 542.345 367.056C527.64 364.281 523.079 369.831 515.989 375.574C508.899 381.318 497.955 375.299 491.206 372.748C484.446 370.198 474.331 374.207 466.45 381.43C463.866 383.807 460.252 385.144 456.573 385.889V418.076H596.5V350.794C587.451 356.15 579.175 369.004 569.344 372.187Z" fill="#00759F"/>
<path d="M298.023 249.548H314.521V319.392H298.023V249.548Z" fill="#A600A9"/>
<path d="M316.177 228.991H332.674V319.392H316.177V228.991Z" fill="url(#paint22_linear_203_2749)"/>
<path d="M334.201 275.747H350.699V319.402H334.201V275.747Z" fill="url(#paint23_linear_203_2749)"/>
<path d="M352.474 288.418H368.971V319.392H352.474V288.418Z" fill="url(#paint24_linear_203_2749)"/>
<path d="M403.521 363.791H408.92V408.986H403.521V363.791Z" fill="url(#paint25_linear_203_2749)"/>
<path d="M395.208 382.808H400.606V408.976H395.208V382.808Z" fill="#005CB4"/>
<path d="M386.895 378.727H392.293V408.986H386.895V378.727Z" fill="#A600A9"/>
<path d="M378.581 396.784H383.979V408.986H378.581V396.784Z" fill="#005CB4"/>
<path d="M420.157 353.915H425.555V408.976H420.157V353.915Z" fill="#00759F"/>
<path d="M411.834 358.955H417.232V408.986H411.834V358.955Z" fill="url(#paint26_linear_203_2749)"/>
<path d="M436.783 348.467H442.181V408.976H436.783V348.467Z" fill="#A600A9"/>
<path d="M428.47 336.521H433.868V408.986H428.47V336.521Z" fill="#005CB4"/>
<path d="M383.832 414.658C383.832 414.801 382.765 414.913 381.441 414.913C380.126 414.913 379.05 414.801 379.05 414.658C379.05 414.516 380.117 414.393 381.441 414.393C382.765 414.393 383.832 414.516 383.832 414.658ZM392.035 414.658C392.035 414.801 390.968 414.913 389.644 414.913C388.329 414.913 387.262 414.801 387.262 414.658C387.262 414.516 388.329 414.393 389.644 414.393C390.968 414.393 392.035 414.516 392.035 414.658ZM400.228 414.658C400.228 414.801 399.162 414.913 397.847 414.913C396.532 414.913 395.465 414.801 395.465 414.658C395.465 414.516 396.532 414.393 397.847 414.393C399.162 414.393 400.228 414.516 400.228 414.658ZM408.422 414.658C408.422 414.801 407.355 414.913 406.04 414.913C404.725 414.913 403.649 414.801 403.649 414.658C403.649 414.516 404.716 414.393 406.04 414.393C407.355 414.393 408.422 414.516 408.422 414.658ZM416.625 414.658C416.625 414.801 415.558 414.913 414.243 414.913C412.928 414.913 411.852 414.801 411.852 414.658C411.852 414.516 412.919 414.393 414.243 414.393C415.558 414.393 416.625 414.516 416.625 414.658ZM424.819 414.658C424.819 414.801 423.752 414.913 422.428 414.913C421.113 414.913 420.037 414.801 420.037 414.658C420.037 414.516 421.103 414.393 422.428 414.393C423.752 414.393 424.819 414.516 424.819 414.658ZM433.021 414.658C433.021 414.801 431.955 414.913 430.63 414.913C429.315 414.913 428.249 414.801 428.249 414.658C428.249 414.516 429.315 414.393 430.63 414.393C431.946 414.393 433.021 414.516 433.021 414.658ZM441.215 414.658C441.215 414.801 440.148 414.913 438.824 414.913C437.509 414.913 436.442 414.801 436.442 414.658C436.442 414.516 437.509 414.393 438.824 414.393C440.148 414.393 441.215 414.516 441.215 414.658Z" fill="#1A2E35"/>
<path opacity="0.5" d="M93.7064 456.13C121.447 456.13 143.935 452.462 143.935 447.938C143.935 443.413 121.447 439.745 93.7064 439.745C65.9658 439.745 43.4775 443.413 43.4775 447.938C43.4775 452.462 65.9658 456.13 93.7064 456.13Z" fill="#000640"/>
<path d="M99.2052 261.474L92.5105 294.101C92.3266 294.988 92.8691 295.866 93.6876 295.988L114.526 299.304C115.252 299.416 115.933 298.896 116.098 298.11L122.793 265.494C122.977 264.606 122.434 263.729 121.625 263.597L100.787 260.281C100.051 260.158 99.3708 260.679 99.2052 261.474Z" fill="black"/>
<path d="M100.511 262.525L94.1016 293.754L114.793 297.049L121.202 265.821L100.511 262.525Z" fill="url(#paint27_linear_203_2749)"/>
<path d="M119.004 268.116L101.431 265.321M118.416 271.075L100.833 268.269M111.096 273.523L100.106 271.768M110.314 276.053L99.3246 274.309M109.532 278.594L98.543 276.849M113.56 292.611L102.58 290.867" stroke="#A1D2F0" stroke-width="1.481" stroke-linecap="round" stroke-linejoin="round"/>
<path d="M91.1868 294.478C92.3639 293.866 93.2467 292.723 94.0836 291.611L96.5665 288.337C96.8976 287.908 97.2378 287.429 97.2746 286.867C95.886 286.745 94.994 288.745 93.6054 288.857C94.2491 286.327 95.1779 283.878 96.3642 281.593C96.6493 281.032 96.9619 280.389 96.7596 279.787C95.2607 280.42 93.9916 281.603 92.9065 282.909C92.1432 283.827 91.4351 284.817 90.819 285.857C88.989 288.928 87.8486 292.458 87.0762 296.049" fill="url(#paint28_linear_203_2749)"/>
<path d="M85.2553 340.51L78.7812 356.976C81.5125 362.087 83.085 368.127 83.2965 374.238C83.4069 377.421 83.1494 380.594 83.2321 383.777C83.2413 384.001 83.2689 384.246 83.3149 384.471C84.1793 379.757 84.8323 375.87 85.0805 373.35C85.7886 366.27 85.7886 355.017 85.5679 340.489C85.476 340.489 85.3656 340.489 85.2553 340.51Z" fill="#F2A181"/>
<path d="M85.2183 320.759L70.3391 306.833C70.3391 306.833 63.4145 317.249 66.0262 327.298C67.3136 332.236 68.9229 334.695 69.6218 337.041C70.2748 339.235 74.7532 370.239 74.4222 372.514C74.0911 374.779 71.6818 381.124 70.7621 387.796C69.7506 395.132 69.8241 417.607 69.1896 426.697H69.1804C69.1804 426.697 68.6746 433.481 67.9482 434.96C67.2309 436.44 66.2101 438.093 66.0354 440.102C65.9342 441.265 66.5136 442.5 67.7183 443.183C68.9229 443.867 69.7322 443.153 70.1644 443.214C72.6841 443.551 73.1347 445.673 77.4569 446.468C78.7903 446.713 80.8318 446.213 81.9997 445.193C82.4595 444.795 82.4411 444.153 82.1836 443.704C81.9262 443.265 78.7351 442.051 77.3005 441.02C75.9303 440.041 74.5877 437.348 74.2107 436.43C74.1187 436.195 74.1371 435.522 74.2199 434.675C74.413 433.226 74.6337 431.716 74.8728 430.155C75.0659 429.043 75.2222 428.237 75.2222 428.237L75.1763 428.227C78.3305 408.476 84.1976 382.379 85.0988 373.381C86.092 363.332 85.6873 344.978 85.2183 320.759Z" fill="url(#paint29_linear_203_2749)"/>
<path d="M82.3305 445.52C82.6432 444.918 82.726 444.02 82.4317 443.795C82.0271 443.489 80.5741 442.428 79.7372 442C78.9004 441.571 77.567 441.194 78.036 441.48C78.505 441.765 77.6405 442.816 76.8589 442.755C74.146 442.571 72.1505 440.572 70.6056 440.143C68.3801 439.521 67.4421 436.603 67.341 436.134C66.9179 436.43 65.9432 438.786 65.7409 439.521C65.5661 440.194 65.2351 441.408 65.4098 442.102C65.5293 442.581 65.7868 443.551 65.6581 444.571C65.6581 444.571 66.0995 444.948 67.2582 445.214C67.9939 445.387 68.9871 445.244 68.9871 445.244L69.1802 443.693C69.1802 443.693 69.7871 443.673 70.5596 443.846C71.3321 444.02 72.5919 444.836 72.6655 444.938C72.9781 445.346 73.2264 446.101 73.6311 446.326C74.7162 446.927 75.8105 447.223 77.1899 447.315C80.0959 447.478 81.788 446.54 82.3305 445.52Z" fill="black"/>
<path d="M105.533 445.214C105.211 444.826 101.762 444.204 100.153 443.449C98.6172 442.734 96.7504 440.439 96.3825 439.46C96.0147 438.49 96.1066 433.553 96.1526 431.482C96.4745 417.209 98.8563 382.328 99.1965 373.983C99.7943 359.465 98.093 344.478 93.0627 321.177L74.312 305.211C74.312 305.211 69.061 316.035 70.8175 326.39C71.8383 332.399 76.3259 333.317 77.0892 335.654C77.8525 337.99 89.1912 375.625 89.1912 375.625C89.1912 375.625 86.9842 383.767 86.8554 392.683C86.7451 400.294 89.8533 423.248 90.4327 431.992C90.497 433.695 90.7637 437.797 90.3131 439.092C89.7614 440.684 88.336 442.561 88.4095 444.571C88.4463 445.744 89.2096 446.846 90.543 447.305C91.8673 447.764 92.6121 446.907 93.0719 446.887C95.7112 446.764 96.4469 448.784 101.008 448.774C102.415 448.774 104.457 447.917 105.542 446.683C105.946 446.244 105.854 445.611 105.533 445.214Z" fill="url(#paint30_linear_203_2749)"/>
<path d="M105.928 447.009C106.176 446.356 106.139 445.448 105.818 445.285C105.358 445.061 103.73 444.265 102.81 444C101.891 443.724 100.475 443.591 100.99 443.785C101.505 443.979 100.75 445.173 99.932 445.265C97.1089 445.571 94.7915 443.959 93.1454 443.816C90.7636 443.612 89.8899 440.898 89.7336 440.439C89.3382 440.806 88.1611 443.306 88.0507 444.081C87.9496 444.775 87.7749 446.04 88.0415 446.693C88.2255 447.142 88.6209 448.06 88.6117 449.08C88.6117 449.08 89.1175 449.366 90.3498 449.427C91.1314 449.458 92.1338 449.141 92.1338 449.141V447.57C92.1338 447.57 92.7591 447.438 93.5776 447.468C94.396 447.499 95.4076 447.968 95.9042 448.376C96.2904 448.703 96.695 449.243 97.1548 449.376C98.4791 449.743 99.4263 449.845 100.861 449.682C103.868 449.345 105.496 448.111 105.928 447.009Z" fill="black"/>
<path d="M70.7346 305.078C69.4655 306.629 64.9319 315.015 64.8767 321.83C64.8307 328.655 67.0194 333.032 67.2125 334.45C68.6471 344.876 70.0449 357.445 70.0449 358.129C70.0449 358.812 75.3786 362.761 82.5515 362.261C95.803 361.332 100.953 357.486 100.953 357.486C100.953 357.486 100.327 332.236 98.286 319.79C97.2652 313.556 92.8051 303.507 92.8051 303.507" fill="url(#paint31_linear_203_2749)"/>
<path d="M58.6416 277.818C58.6416 277.818 60.7751 289.581 61.336 291.673C61.897 293.764 64.665 307.057 67.2859 306.823C69.9068 306.588 84.2802 293.285 84.2802 293.285L82.2479 288.765L69.5941 295.458C69.5941 295.458 68.4538 280.267 67.4514 276.645" fill="white"/>
<path d="M63.5342 285.062C64.8768 290.316 67.6172 295.845 68.4357 299.926C68.6012 300.742 77.365 297.212 77.3834 293.56" fill="url(#paint32_linear_203_2749)"/>
<path d="M62.4118 270.973C62.4118 270.973 61.952 280.797 63.5521 285.755C65.1339 285.725 66.5225 285.317 66.5225 285.317L62.4118 270.973Z" fill="#B03D44"/>
<path d="M87.2595 230.674C89.7884 234.306 89.2918 239.428 88.6665 243.968C88.3538 246.263 88.0319 248.559 87.7193 250.854C87.5721 251.946 87.3698 253.139 86.6066 253.843C85.8341 254.547 84.7306 254.537 83.7282 254.496L83.7558 260.199C80.8222 260.271 77.8979 260.291 74.9643 260.24C74.9643 258.904 74.6977 257.577 74.2103 256.373C72.7757 256.343 71.8193 254.751 71.2583 253.282C70.6146 251.599 70.1364 249.834 69.6858 248.069C69.0789 245.733 68.4995 243.356 68.4443 240.917C68.3892 238.479 68.9133 235.949 70.3019 234.072C71.2491 232.786 72.5458 231.878 73.87 231.113C75.6908 230.062 77.8703 229.236 79.7463 230.154" fill="white"/>
<path d="M84.7131 239.01C84.943 239.407 84.8878 239.948 85.1085 240.356C85.4764 241.05 85.9546 241.295 86.6075 241.631C87.6559 242.172 87.4168 243.876 87.38 244.631C88.1708 244.049 88.2996 242.448 88.4927 241.642C88.7042 240.734 88.8421 239.795 89.0904 238.897C89.3203 238.02 89.725 237.194 89.7985 236.265C90.056 233.072 88.2536 229.318 86.0649 227.532C84.474 226.226 82.0555 226.277 80.2622 227.604C79.5081 228.165 78.938 229.001 78.6069 229.94C78.4598 230.338 78.3678 230.807 78.5426 231.195" fill="black"/>
<path d="M70.6055 261.556C70.7526 260.444 71.0285 259.148 71.9573 258.71C72.2148 258.587 72.4999 258.547 72.7849 258.516C75.6449 258.169 78.5233 258.016 81.3924 258.067C82.5787 258.087 83.811 258.159 84.8777 258.74C86.5422 259.669 87.4618 261.658 88.2711 263.525" fill="url(#paint33_linear_203_2749)"/>
<path d="M93.8262 282.889C93.8262 283.929 93.302 285.327 93.1365 285.868C92.4835 286.245 89.8903 286.857 88.4005 286.102C88.0694 282.664 86.2578 276.053 86.2578 276.053C86.2578 276.053 93.8262 281.93 93.8262 282.889Z" fill="#B03D44"/>
<path d="M90.4971 280.491C90.4971 280.491 99.0862 303.507 102.811 303.507C105.523 303.507 112.163 282.256 112.163 282.256L107.96 280.053L103.28 288.949L98.5436 272.35" fill="white"/>
<path d="M107.133 281.634C107.133 281.634 108.521 279.206 108.42 277.482C108.383 276.829 108.025 273.697 108.319 273.084C108.613 272.472 109.321 270.452 109.726 270.065C110.131 269.677 111.62 269.044 111.988 269.32C112.356 269.595 112.807 268.31 113.414 268.422C114.021 268.534 114.517 269.095 114.517 269.708C114.517 270.32 115.326 270.432 115.428 270.881C115.529 271.33 115.483 271.717 115.63 272.054C115.777 272.391 116.228 272.227 116.384 273.064C116.531 273.829 116.338 273.901 116.384 274.299C116.43 274.686 116.733 274.656 116.632 275.4C116.531 276.145 116.071 277.114 115.667 277.951C115.262 278.787 114.434 279.838 113.322 280.583C112.779 280.95 112.476 281.593 111.952 282.674" fill="white"/>
<path d="M109.441 263.852C109.33 263.668 109.045 263.362 108.696 263.627C108.356 263.892 108.457 264.351 108.53 264.545L111.069 270.922C111.069 270.922 111.271 271.187 111.666 270.799C112.089 270.381 111.961 270.177 111.961 270.177C111.961 270.177 109.542 264.035 109.441 263.852Z" fill="black"/>
<path d="M112.108 269.759C111.62 270.718 111.06 271.024 110.563 271.544C110.167 271.952 110.213 272.217 109.781 272.646C110.545 272.585 110.416 272.085 111.4 271.289C111.86 270.922 112.329 270.524 112.421 269.901C112.457 269.697 112.227 269.575 112.108 269.759Z" fill="black"/>
<path d="M93.835 284.684C96.603 284.123 98.7457 281.991 100.944 279.502C99.7204 275.757 97.9824 266.545 94.9569 263.025C91.8302 259.403 86.5609 259.852 83.7377 259.954C80.8134 259.812 78.404 260.199 74.9095 260.373C72.5829 260.485 70.2655 260.791 67.9849 261.342C67.7274 261.403 67.4699 261.474 67.2124 261.546V261.515C67.2124 261.515 63.019 262.015 60.8855 263.821C55.4598 268.422 59.6624 285.143 59.6624 285.143C59.6624 285.143 59.3957 286.031 63.0374 285.806C63.6535 285.766 64.2513 285.704 64.8214 285.623C66.7158 290.55 71.4794 300.712 70.0908 302.885C69.7321 303.446 68.8217 304.527 68.7114 305.231C68.3067 307.812 73.5761 308.73 75.8291 308.934C79.2592 309.251 83.2043 309.036 86.6437 308.863C89.2553 308.73 94.9569 307.72 95.3615 304.139C95.4443 303.436 95.1316 302.874 94.819 302.364C94.4143 301.711 93.4947 300.926 93.1637 300.201C92.3728 298.467 91.6739 291.173 91.9498 289.316C92.1613 287.826 93.0809 286.857 93.835 284.684Z" fill="url(#paint34_linear_203_2749)"/>
<path d="M85.0809 362.036C84.2349 355.976 79.0115 337.204 78.7908 336.684C75.94 334.236 74.064 331.705 73.1168 329.665C72.4731 333.776 74.1652 337.847 75.7469 341.642C78.5149 348.263 80.161 355.456 82.5428 362.261" fill="url(#paint35_linear_203_2749)"/>
<path d="M84.2349 247.998C83.8854 246.09 83.913 245.008 84.474 243.733C84.6579 243.315 84.9062 242.917 85.2464 242.652C85.7062 242.295 86.304 242.223 86.8097 242.468C87.1408 242.631 87.4075 242.927 87.6006 243.284C88.1984 240.724 88.3271 237.989 88.1524 235.327C87.8765 231.103 85.5867 227.838 82.2301 226.308C76.0228 223.482 67.1118 226.277 64.5921 233.031C62.6885 238.132 63.6541 245.498 67.2957 249.783C70.5235 253.568 75.1584 254.129 79.4437 253.343C81.6324 252.946 85.0165 253.18 86.1476 249.875C86.2396 249.62 86.0373 249.365 85.8074 249.385C84.9154 249.467 84.2992 248.355 84.2349 247.998Z" fill="black"/>
<path d="M72.1323 250.977C70.3482 250.415 68.4171 251.528 67.2216 253.119C65.8422 254.945 65.2536 257.792 66.5319 259.689C67.0101 260.403 67.6998 260.903 68.3987 261.342C70.5322 262.658 73.0519 263.433 75.4245 262.791C77.7879 262.148 79.8662 259.791 79.8386 257.088C79.811 254.639 78.2017 252.599 76.574 250.946" fill="black"/>
<path opacity="0.5" d="M616.079 450.917C616.079 456.905 594.155 461.761 567.119 461.761C540.083 461.761 518.159 456.905 518.159 450.917C518.159 444.928 540.073 440.072 567.119 440.072C594.165 440.072 616.079 444.928 616.079 450.917Z" fill="#000640"/>
<path d="M551.008 269.657L557.501 301.293C557.675 302.15 557.151 302.997 556.36 303.13L536.147 306.353C535.448 306.466 534.777 305.955 534.621 305.19L528.128 273.554C527.954 272.687 528.478 271.84 529.269 271.717L549.482 268.504C550.19 268.381 550.852 268.891 551.008 269.657Z" fill="black"/>
<path d="M549.748 270.677L555.964 300.977L535.889 304.17L529.673 273.87L549.748 270.677Z" fill="url(#paint36_linear_203_2749)"/>
<path d="M531.797 276.104L548.856 273.39M532.376 278.971L549.426 276.257M539.476 281.348L550.134 279.644M540.23 283.807L550.888 282.103M540.993 286.265L551.651 284.572M537.085 299.865L547.743 298.171" stroke="#A1D2F0" stroke-width="1.436" stroke-linecap="round" stroke-linejoin="round"/>
<path d="M558.788 301.681C557.647 301.079 556.792 299.977 555.983 298.896C555.183 297.835 554.374 296.774 553.573 295.713C553.252 295.294 552.921 294.835 552.884 294.295C554.236 294.172 555.1 296.11 556.443 296.223C555.817 293.764 554.916 291.387 553.767 289.173C553.491 288.632 553.187 288 553.38 287.418C554.833 288.03 556.066 289.183 557.123 290.448C557.868 291.336 558.549 292.295 559.146 293.305C560.921 296.284 562.025 299.712 562.779 303.191" fill="black"/>
<path d="M564.536 346.315L570.807 362.291C568.159 367.249 566.632 373.105 566.43 379.033C566.329 382.114 566.568 385.205 566.494 388.286C566.485 388.5 566.458 388.735 566.412 388.959C565.575 384.389 564.94 380.624 564.701 378.166C564.012 371.3 564.012 360.383 564.232 346.294C564.333 346.305 564.435 346.305 564.536 346.315Z" fill="#F2A181"/>
<path d="M564.581 327.166L579.01 313.658C579.01 313.658 585.723 323.758 583.194 333.511C581.952 338.306 580.389 340.683 579.709 342.958C579.074 345.08 574.734 375.166 575.055 377.36C575.377 379.563 577.713 385.715 578.605 392.183C579.589 399.294 579.516 421.096 580.132 429.921H580.141C580.141 429.921 580.637 436.501 581.336 437.929C582.035 439.368 583.019 440.969 583.194 442.908C583.295 444.03 582.725 445.234 581.557 445.897C580.389 446.56 579.608 445.866 579.184 445.928C576.738 446.254 576.306 448.315 572.113 449.08C570.816 449.315 568.839 448.835 567.699 447.835C567.257 447.448 567.276 446.825 567.524 446.397C567.772 445.968 570.862 444.785 572.26 443.795C573.593 442.847 574.89 440.235 575.258 439.337C575.35 439.102 575.331 438.46 575.249 437.633C575.055 436.226 574.844 434.756 574.614 433.257C574.43 432.175 574.283 431.39 574.283 431.39L574.329 431.38C571.276 412.23 565.584 386.909 564.71 378.176C563.726 368.453 564.121 350.661 564.581 327.166Z" fill="black"/>
<path d="M567.377 448.172C567.074 447.591 566.991 446.713 567.276 446.499C567.671 446.203 569.078 445.173 569.888 444.754C570.697 444.336 571.994 443.969 571.534 444.244C571.083 444.52 571.92 445.54 572.674 445.479C575.304 445.305 577.245 443.357 578.744 442.949C580.905 442.347 581.815 439.521 581.907 439.062C582.321 439.347 583.268 441.633 583.461 442.347C583.636 443 583.948 444.183 583.783 444.856C583.673 445.326 583.415 446.264 583.544 447.244C583.544 447.244 583.121 447.611 581.99 447.866C581.272 448.029 580.316 447.886 580.316 447.886L580.132 446.377C580.132 446.377 579.544 446.356 578.799 446.519C578.054 446.693 576.831 447.478 576.757 447.58C576.454 447.978 576.215 448.703 575.819 448.927C574.771 449.519 573.704 449.794 572.371 449.886C569.547 450.08 567.901 449.172 567.377 448.172Z" fill="black"/>
<path d="M544.874 447.887C545.187 447.509 548.525 446.907 550.098 446.173C551.587 445.479 553.399 443.255 553.748 442.306C554.098 441.357 554.015 436.572 553.978 434.563C553.666 420.718 551.357 386.888 551.026 378.788C550.447 364.709 552.093 350.171 556.976 327.563L575.166 312.077C575.166 312.077 580.261 322.585 578.55 332.624C577.557 338.449 573.207 339.347 572.472 341.612C571.736 343.877 560.737 380.38 560.737 380.38C560.737 380.38 562.88 388.276 563 396.917C563.11 404.303 560.084 426.564 559.523 435.042C559.459 436.705 559.202 440.674 559.643 441.929C560.186 443.479 561.556 445.295 561.491 447.244C561.455 448.376 560.719 449.458 559.422 449.896C558.135 450.345 557.418 449.509 556.976 449.488C554.41 449.366 553.702 451.325 549.279 451.325C547.918 451.325 545.932 450.488 544.883 449.294C544.47 448.876 544.562 448.264 544.874 447.887Z" fill="black"/>
<path d="M544.497 449.621C544.258 448.988 544.286 448.111 544.608 447.948C545.049 447.723 546.631 446.958 547.523 446.693C548.415 446.428 549.794 446.305 549.288 446.489C548.783 446.683 549.518 447.835 550.309 447.917C553.05 448.213 555.293 446.652 556.894 446.509C559.202 446.305 560.048 443.673 560.204 443.234C560.59 443.591 561.731 446.02 561.832 446.764C561.933 447.438 562.099 448.662 561.841 449.305C561.666 449.743 561.28 450.631 561.289 451.62C561.289 451.62 560.802 451.906 559.606 451.957C558.852 451.988 557.878 451.682 557.878 451.682V450.162C557.878 450.162 557.271 450.029 556.48 450.07C555.68 450.1 554.705 450.549 554.227 450.957C553.85 451.274 553.454 451.804 553.013 451.927C551.735 452.284 550.815 452.386 549.417 452.233C546.493 451.886 544.911 450.692 544.497 449.621Z" fill="black"/>
<path d="M578.633 311.954C579.865 313.454 584.261 321.585 584.307 328.206C584.353 334.827 582.229 339.071 582.045 340.449C580.647 350.559 586.477 401.457 586.477 402.12C586.477 402.783 579.056 409.445 572.131 410.322C556.921 412.251 542.575 405.017 542.575 405.017C542.575 405.017 545.187 365.964 551.909 326.227C552.93 320.187 557.225 310.434 557.225 310.434" fill="url(#paint37_linear_203_2749)"/>
<path d="M590.358 285.511C590.358 285.511 588.289 296.916 587.746 298.947C587.204 300.977 584.518 313.872 581.971 313.648C579.424 313.423 565.482 300.508 565.482 300.508L567.46 296.131L579.736 302.619C579.736 302.619 580.849 287.877 581.815 284.368" fill="black"/>
<path d="M586.698 278.879C586.698 278.879 587.149 288.408 585.585 293.223C584.05 293.193 582.707 292.805 582.707 292.805L586.698 278.879Z" fill="#B03D44"/>
<path d="M562.595 239.785C560.139 243.315 560.627 248.273 561.234 252.68C561.537 254.904 561.84 257.139 562.153 259.363C562.3 260.424 562.493 261.577 563.238 262.26C563.983 262.944 565.059 262.933 566.025 262.893L565.997 268.422C568.839 268.494 571.68 268.514 574.522 268.463C574.522 267.167 574.779 265.882 575.258 264.709C576.646 264.678 577.575 263.137 578.118 261.709C578.743 260.077 579.203 258.363 579.644 256.649C580.233 254.384 580.794 252.068 580.849 249.712C580.904 247.355 580.398 244.896 579.046 243.07C578.127 241.825 576.867 240.948 575.579 240.203C573.814 239.183 571.699 238.377 569.878 239.265" fill="white"/>
<path d="M565.069 247.875C564.848 248.263 564.894 248.783 564.692 249.181C564.342 249.854 563.873 250.089 563.239 250.416C562.218 250.946 562.457 252.589 562.485 253.333C561.712 252.762 561.593 251.221 561.409 250.426C561.197 249.548 561.069 248.64 560.829 247.763C560.609 246.906 560.213 246.11 560.14 245.212C559.891 242.111 561.639 238.479 563.754 236.735C565.29 235.469 567.644 235.521 569.382 236.806C570.118 237.347 570.669 238.163 570.991 239.071C571.129 239.459 571.23 239.918 571.056 240.285" fill="black"/>
<path d="M578.752 269.738C578.605 268.657 578.348 267.402 577.437 266.973C577.189 266.851 576.913 266.82 576.637 266.79C573.86 266.453 571.074 266.3 568.287 266.351C567.138 266.371 565.942 266.433 564.912 267.004C563.294 267.902 562.402 269.84 561.62 271.646" fill="url(#paint38_linear_203_2749)"/>
<path d="M556.231 290.428C556.231 291.438 556.737 292.785 556.903 293.325C557.537 293.682 560.057 294.284 561.501 293.56C561.813 290.224 563.579 283.807 563.579 283.807C563.579 283.807 556.231 289.5 556.231 290.428Z" fill="#B03D44"/>
<path d="M559.459 288.102C559.459 288.102 551.128 310.424 547.523 310.424C544.893 310.424 538.446 289.816 538.446 289.816L542.52 287.673L547.063 296.304L551.661 280.206" fill="black"/>
<path d="M543.32 289.224C543.32 289.224 541.969 286.867 542.07 285.194C542.107 284.552 542.447 281.522 542.162 280.93C541.877 280.338 541.196 278.379 540.801 278.002C540.405 277.624 538.962 277.012 538.612 277.288C538.263 277.563 537.821 276.308 537.233 276.421C536.644 276.533 536.157 277.073 536.157 277.665C536.157 278.257 535.375 278.369 535.274 278.808C535.173 279.247 535.219 279.624 535.081 279.95C534.934 280.277 534.501 280.114 534.345 280.93C534.207 281.675 534.391 281.746 534.345 282.123C534.299 282.501 534.005 282.47 534.097 283.195C534.198 283.919 534.639 284.858 535.035 285.674C535.43 286.49 536.23 287.5 537.306 288.224C537.84 288.581 538.125 289.204 538.63 290.255" fill="black"/>
<path d="M541.086 271.972C541.187 271.799 541.472 271.503 541.803 271.758C542.134 272.013 542.033 272.462 541.959 272.646L539.495 278.828C539.495 278.828 539.292 279.083 538.915 278.706C538.502 278.308 538.63 278.104 538.63 278.104C538.63 278.104 540.984 272.146 541.086 271.972Z" fill="white"/>
<path d="M538.493 277.696C538.962 278.624 539.504 278.92 539.992 279.43C540.378 279.828 540.323 280.083 540.746 280.501C540.001 280.44 540.13 279.95 539.173 279.185C538.732 278.828 538.272 278.441 538.18 277.839C538.152 277.635 538.382 277.522 538.493 277.696Z" fill="black"/>
<path d="M556.212 292.172C553.527 291.622 551.449 289.561 549.315 287.143C550.502 283.521 552.185 274.574 555.118 271.166C558.144 267.657 563.257 268.085 565.997 268.187C568.829 268.045 571.165 268.422 574.559 268.596C576.812 268.708 579.065 268.993 581.281 269.534C581.538 269.595 581.787 269.657 582.026 269.728L582.035 269.697C582.035 269.697 586.109 270.177 588.169 271.932C593.429 276.4 589.355 292.611 589.355 292.611C589.355 292.611 589.613 293.478 586.081 293.254C585.484 293.213 584.904 293.152 584.352 293.07C582.513 297.855 577.888 307.7 579.239 309.812C579.589 310.363 580.472 311.403 580.573 312.087C580.959 314.597 575.855 315.474 573.667 315.678C570.338 315.984 566.512 315.78 563.174 315.607C560.645 315.474 555.118 314.495 554.723 311.026C554.649 310.342 554.953 309.802 555.256 309.302C555.642 308.669 556.534 307.904 556.856 307.21C557.629 305.527 558.3 298.457 558.033 296.651C557.84 295.223 556.948 294.284 556.212 292.172Z" fill="#A600A9"/>
<path d="M565.537 256.588C565.868 254.731 565.85 253.69 565.298 252.456C565.114 252.048 564.875 251.66 564.553 251.405C564.334 251.236 564.08 251.131 563.815 251.101C563.549 251.07 563.281 251.115 563.036 251.232C562.714 251.385 562.456 251.67 562.273 252.017C561.693 249.528 561.574 246.875 561.739 244.294C562.006 240.193 564.231 237.03 567.487 235.541C573.51 232.797 582.154 235.51 584.601 242.06C586.449 247.008 585.511 254.16 581.98 258.302C578.853 261.974 574.347 262.515 570.2 261.76C568.075 261.373 564.792 261.607 563.698 258.404C563.615 258.159 563.808 257.904 564.029 257.924C564.875 258.016 565.473 256.935 565.537 256.588Z" fill="black"/>
<path d="M577.272 259.485C579.01 258.944 580.877 260.026 582.036 261.556C583.369 263.331 583.948 266.086 582.698 267.932C582.229 268.626 581.567 269.116 580.886 269.534C578.817 270.809 576.371 271.564 574.072 270.932C571.773 270.31 569.759 268.024 569.786 265.402C569.814 263.025 571.377 261.046 572.95 259.444" fill="black"/>
<path d="M564.554 251.405C564.554 251.405 566.32 251.425 564.011 257.934C561.703 264.443 561.482 276.737 561.482 276.737C561.482 276.737 567.782 279.634 576.26 279.389C584.739 279.144 585.604 279.144 585.824 278.42C586.045 277.696 591.259 242.499 579.737 236.469" fill="black"/>
<path opacity="0.5" d="M511.336 509.68C539.077 509.68 561.565 506.013 561.565 501.488C561.565 496.964 539.077 493.296 511.336 493.296C483.596 493.296 461.107 496.964 461.107 501.488C461.107 506.013 483.596 509.68 511.336 509.68Z" fill="#000640"/>
<path d="M453.713 388.766H501.386L499.326 383.695H451.828L453.713 388.766Z" fill="black"/>
<path d="M544.138 501.713H538.492L468.05 303.66H474.23L544.138 501.713Z" fill="black"/>
<path d="M443.588 360.332H491.261L489.201 355.262H441.703L443.588 360.332ZM433.372 331.501H481.044L478.984 326.421H431.486L433.372 331.501ZM493.321 501.713H487.674L417.232 303.66H423.421L493.321 501.713Z" fill="black"/>
<path d="M483.821 474.871H531.503L529.443 469.801H481.945L483.821 474.871ZM473.788 446.03H521.461L519.401 440.959H471.903L473.788 446.03ZM463.654 417.801H511.336L509.276 412.73H461.778L463.654 417.801Z" fill="black"/>
<path d="M480.483 197.14L478.736 193.111C478.736 193.111 475.37 194.304 472.685 194.457C469.999 194.61 468.923 195.202 468.923 195.202L466.771 199.079C466.771 199.079 475.103 200.864 480.483 197.14Z" fill="url(#paint39_linear_203_2749)"/>
<path d="M480.483 197.14C480.483 197.14 484.915 196.691 487.205 198.181C489.495 199.67 491.913 209.067 492.713 215.484C493.523 221.901 494.865 246.804 495.003 251.874C495.141 256.945 495.003 268.432 495.003 268.432C495.003 268.432 482.901 271.268 474.57 270.973C466.238 270.677 459.644 263.362 459.644 263.362C459.644 263.362 460.316 252.772 461.392 249.344C462.468 245.916 464.215 239.652 463.139 234.429C462.063 229.205 458.835 214.147 459.644 208.475C460.454 202.802 459.644 201.762 462.468 200.721C465.291 199.681 466.771 199.079 466.771 199.079C466.771 199.079 473.898 200.864 480.483 197.14Z" fill="url(#paint40_linear_203_2749)"/>
<path d="M469.19 209.617C469.19 209.617 468.473 215.882 464.169 223.043C459.865 230.205 454.495 237.265 452.702 238.357C450.908 239.448 447.147 239.254 445.087 237.459C443.027 235.674 428.773 217.371 428.773 217.371C428.773 217.371 428.681 215.188 430.3 213.29C431.909 211.403 433.528 211.403 433.528 211.403L447.239 224.227C447.239 224.227 455.929 207.924 458.081 205.037C460.233 202.15 462.385 201.456 464.086 201.752C465.788 202.058 469.374 205.435 469.19 209.617Z" fill="url(#paint41_linear_203_2749)"/>
<path d="M432.535 211.505C432.535 211.505 429.574 208.026 427.964 207.026C426.355 206.037 421.15 204.843 420.433 204.935C419.715 205.037 419.697 205.577 420.589 206.077C421.481 206.577 423.477 207.22 423.477 207.22C423.477 207.22 420.966 208.914 420.966 210.107C420.966 211.301 422.575 213.586 423.569 213.586C424.553 213.586 425.987 213.29 425.987 213.29L428.948 215.78C428.948 215.78 429.574 212.698 432.535 211.505Z" fill="white"/>
<path d="M487.738 198.63C487.6 198.467 500.576 210.934 504.135 216.606C507.694 222.278 510.719 230.552 510.25 232.786C509.781 235.021 506.149 239.203 503.73 241.438C501.312 243.672 494.921 248.447 494.921 248.447L494.387 234.276C494.387 234.276 498.755 229.797 498.351 229.205C497.946 228.614 493.514 223.686 493.514 223.686C493.514 223.686 492.907 213.994 491.5 208.628C490.093 203.251 489.017 200.119 487.738 198.63Z" fill="url(#paint42_linear_203_2749)"/>
<path d="M460.298 264.025C462.164 265.841 467.783 270.718 474.561 270.962C482.892 271.258 494.994 268.422 494.994 268.422C494.994 268.422 493.514 279.308 492.309 283.633C491.095 287.959 490.295 293.478 490.157 295.264C490.019 297.049 492.438 327.033 492.843 335.531C493.247 344.03 492.217 371.575 492.217 371.575H484.686C484.686 371.575 481.954 338.367 479.536 320.024C477.117 301.681 475.903 291.836 475.903 291.836L474.156 295.121C474.156 295.121 473.347 327.339 472.676 341.652C472.004 355.966 470.57 371.728 470.57 371.728L462.633 372.177C462.633 372.177 459.498 317.647 459.093 301.987C458.725 287.214 460.141 266.351 460.298 264.025Z" fill="url(#paint43_linear_203_2749)"/>
<path d="M491.775 371.677C491.775 371.677 492.943 378.931 492.943 379.931C492.943 380.92 492.584 384.307 492.584 384.307C492.584 384.307 487.113 384.511 483.352 384.409C479.59 384.307 475.195 383.318 475.195 383.318C475.195 383.318 474.477 380.635 475.461 379.145C476.445 377.656 480.299 377.36 481.466 375.87C482.634 374.381 484.694 371.595 484.694 371.595C484.694 371.595 490.699 372.075 491.775 371.677Z" fill="url(#paint44_linear_203_2749)"/>
<path d="M469.999 371.677C469.999 371.677 471.167 378.931 471.167 379.931C471.167 380.92 470.808 384.307 470.808 384.307C470.808 384.307 465.346 384.511 461.575 384.409C457.814 384.307 453.418 383.318 453.418 383.318C453.418 383.318 452.701 380.635 453.685 379.145C454.669 377.656 458.522 377.36 459.69 375.87C460.858 374.381 462.918 371.595 462.918 371.595C462.918 371.595 468.923 372.075 469.999 371.677Z" fill="url(#paint45_linear_203_2749)"/>
<path d="M478.689 192.611C478.689 192.611 479.729 177.644 478.598 173.716C477.255 169.044 474.56 165.759 470.349 165.565C466.137 165.361 459.148 165.759 457.263 168.35C455.377 170.931 456.361 174.716 456.545 175.91C456.729 177.103 458.513 178.399 458.513 178.399C458.513 178.399 461.199 177.603 462.008 178.297C462.817 178.991 464.068 182.072 464.068 182.072C464.068 182.072 464.978 179.123 466.128 179.685C468.997 181.072 468.096 185.255 467.654 186.143C467.084 187.285 467.654 186.438 467.654 186.438L474.018 194.09C474.027 194.1 476.63 194.406 478.689 192.611Z" fill="black"/>
<path d="M462.017 178.297C462.826 178.991 464.077 182.072 464.077 182.072C464.077 182.072 464.987 179.124 466.137 179.685C469.006 181.072 468.105 185.255 467.663 186.143C467.093 187.285 467.663 186.438 467.663 186.438L474.027 194.09L468.923 195.182L468.739 193.794C468.739 193.794 466.771 194.59 465.603 194.59C464.436 194.59 463.093 191.907 461.566 189.02C460.04 186.132 458.522 178.379 458.522 178.379C458.522 178.379 461.217 177.603 462.017 178.297Z" fill="white"/>
<path d="M160.488 362.077C160.488 362.077 174.576 362.077 179.459 361.179L184.342 360.281L202.394 357.762L200.785 364.148C200.785 364.148 194.366 366.678 188.757 368.341C183.138 370.004 172.24 373.269 170.548 373.738C168.856 374.197 159.725 376.35 159.725 376.35" fill="url(#paint46_linear_203_2749)"/>
<path d="M126.251 389.531C126.251 389.531 121.552 393.785 120.062 397.631C118.582 401.477 118.333 406.966 118.582 408.884C118.83 410.802 119.446 412.73 119.446 412.312C119.446 411.904 117.469 441.816 117.469 441.816C117.469 441.816 109.054 449.774 105.836 456.364C102.617 462.955 95.4443 480.788 95.4443 480.788C95.4443 480.788 101.256 483.941 103.362 484.359L105.468 484.767C105.468 484.767 114.499 464.047 117.221 460.333C118.94 457.987 125.755 451.682 128.357 446.744C130.95 441.806 135.659 421.218 135.659 421.218C135.659 421.218 141.719 428.492 144.441 431.788C147.163 435.083 150.501 439.745 150.501 440.98C150.501 442.214 148.147 451.406 147.531 454.701C146.915 457.997 144.441 480.635 144.441 480.635C144.441 480.635 147.908 481.461 150.878 481.043C153.848 480.635 154.345 479.941 154.345 479.941C154.345 479.941 156.074 464.291 157.683 456.609C159.293 448.927 161.15 442.469 161.647 441.235C162.143 440 162.263 437.389 160.654 432.043C159.044 426.687 154.097 415.577 150.142 408.986L146.188 402.395C146.188 402.395 133.056 394.887 126.251 389.531Z" fill="black"/>
<path d="M135.364 422.514C136.578 415.056 137.332 408.884 137.332 408.884L132.495 430.859C131.226 438.909 125.589 450.794 125.589 450.794C125.589 450.794 125.589 450.825 125.598 450.876C126.702 449.478 127.676 448.08 128.366 446.774C130.564 442.561 134.288 427.064 135.364 422.514Z" fill="url(#paint47_linear_203_2749)"/>
<path d="M144.441 480.666C144.441 480.666 142.418 484.145 142.335 484.604C142.253 485.063 141.839 489.868 141.839 489.868L148.763 491.582L149.26 490.092C149.26 490.092 156.35 494.03 157.674 494.122C158.999 494.214 165.51 494.122 166.42 493.847C167.33 493.571 168.563 491.745 167.33 491.194C166.089 490.643 161.886 490.46 160.893 489.827C159.9 489.184 154.87 484.063 154.373 482.604C153.877 481.135 153.711 480.319 153.711 480.319C153.711 480.319 151.081 481.941 144.441 480.666Z" fill="url(#paint48_linear_203_2749)"/>
<path d="M95.6373 481.074C95.6373 481.074 93.4119 484.502 92.9797 486.012C92.5475 487.521 91.1221 492.327 91.1221 492.327C91.1221 492.327 93.1636 494.112 94.589 494.724C96.0144 495.336 96.3178 495.479 96.3178 495.479L97.311 494.377C97.311 494.377 100.649 497.948 103.5 498.764C106.342 499.59 112.098 499.866 114.075 499.315C116.053 498.764 116.981 496.642 116.181 495.887C115.381 495.132 112.659 494.857 110.986 493.275C109.312 491.694 106.222 488.878 105.79 487.44C105.358 486.001 105.477 484.767 105.477 484.767C105.477 484.767 104.668 485.399 95.6373 481.074Z" fill="url(#paint49_linear_203_2749)"/>
<path d="M167.45 492.99C166.448 493.173 164.93 493.235 162.705 493.377C158.337 493.653 157.012 492.184 152.065 490.266C148.138 488.736 143.788 486.869 142.17 486.165C142.023 487.725 141.839 489.858 141.839 489.858L148.763 491.572L149.26 490.082C149.26 490.082 156.35 494.02 157.674 494.112C158.999 494.204 165.51 494.112 166.42 493.837C166.769 493.735 167.165 493.398 167.45 492.99Z" fill="url(#paint50_linear_203_2749)"/>
<path d="M114.296 498.499C112.733 499.05 105.385 499.142 102.093 497.397C99.4077 495.979 94.0556 490.756 92.1428 488.858C91.637 490.572 91.1221 492.327 91.1221 492.327C91.1221 492.327 93.1636 494.112 94.589 494.724C96.0144 495.336 96.3178 495.479 96.3178 495.479L97.311 494.377C97.311 494.377 100.649 497.948 103.5 498.764C106.342 499.591 112.098 499.866 114.075 499.315C115.372 498.958 116.218 497.917 116.42 497.03C115.777 497.734 115.013 498.254 114.296 498.499ZM126.251 389.531L127.492 387.062L147.2 400.508L146.17 402.426C146.17 402.436 130.546 393.469 126.251 389.531Z" fill="black"/>
<path d="M127.492 387.062C127.18 386.848 141.268 366.933 146.712 360.526C152.156 354.119 157.021 350.549 160.902 350.824C164.782 351.1 170.797 357.323 172.038 362.995C173.28 368.668 168.323 380.379 167.173 382.481C166.015 384.583 160.332 388.245 155.954 392C151.586 395.754 150.427 397.488 149.195 398.498C147.954 399.508 147.218 400.508 147.218 400.508C147.218 400.508 130.297 388.99 127.492 387.062Z" fill="url(#paint51_linear_203_2749)"/>
<path d="M128.458 387.409C128.807 387.154 135.943 374.115 147.227 361.087C154.455 352.742 160.239 351.12 160.239 351.12C160.239 351.12 156.965 350.61 150.215 356.741C144.459 361.985 127.474 387.062 127.474 387.062L128.458 387.409Z" fill="white"/>
<path d="M170.374 358.7C170.374 358.7 177.878 352.66 179.037 351.477C180.195 350.283 185.474 349.743 188.187 351.202C190.909 352.671 194.127 360.904 194.045 363.464C193.962 366.025 192.233 368.035 192.233 368.035L189.594 367.3C189.594 367.3 187.534 369.861 186.789 370.32C186.044 370.779 184.977 370.779 184.977 370.779C184.977 370.779 183.248 374.717 182.669 374.717C182.09 374.717 180.278 373.35 180.278 373.35C180.278 373.35 174.751 375.452 174.503 374.901C174.255 374.35 171.45 369.963 171.45 369.963C171.45 369.963 173.758 364.281 170.374 358.7Z" fill="black"/>
<path d="M162.042 351.202C162.042 351.202 175.983 353.487 180.93 353.395L185.878 353.303L208.969 350.467L209.548 356.507C209.548 356.507 194.954 361.261 189.179 361.995C183.404 362.73 172.194 364.189 170.456 364.372C168.727 364.556 159.402 365.199 159.402 365.199" fill="url(#paint52_linear_203_2749)"/>
<path d="M209.052 351.661C209.052 351.661 212.923 349.743 213.42 348.641C213.916 347.539 213.751 343.979 214.33 342.509C214.91 341.04 217.466 337.113 217.963 337.113C218.459 337.113 218.79 337.204 218.542 339.673C218.294 342.142 217.714 345.162 217.714 346.356C217.714 347.549 217.963 351.018 217.218 352.028C216.473 353.038 215.075 353.395 214.082 353.946C213.089 354.497 209.383 355.323 209.383 355.323L209.052 351.661Z" fill="white"/>
<path d="M103.059 110.902H179.873V117.462H103.059V110.902Z" fill="#005CB4"/>
<path d="M139.99 124.838H216.805V131.398H139.99V124.838Z" fill="#00759F"/>
<path d="M50.623 137.122H187.562V143.682H50.623V137.122Z" fill="#4529AC"/>
<path d="M256.688 143.682H393.627V150.242H256.688V143.682Z" fill="#3129AC"/>
<path d="M276.929 129.746H325.677V136.306H276.929V129.746Z" fill="#4529AC"/>
<path d="M369.689 130.572H422.429V137.132H369.689V130.572Z" fill="#0075B4"/>
<path opacity="0.3" d="M524.211 133.031H576.95V139.591H524.211V133.031Z" fill="white"/>
<path opacity="0.1" d="M470.956 110.902H523.695V117.462H470.956V110.902Z" fill="white"/>
<path d="M259.943 66.6561H310.908V73.216H259.943V66.6561Z" fill="#00759F"/>
<path d="M285.059 84.6831H344.879V91.243H285.059V84.6831Z" fill="#313BAC"/>
<path d="M297.409 488.674C345.83 488.674 385.084 445.127 385.084 391.408C385.084 337.689 345.83 294.141 297.409 294.141C248.987 294.141 209.733 337.689 209.733 391.408C209.733 445.127 248.987 488.674 297.409 488.674Z" fill="url(#paint53_linear_203_2749)"/>
<path d="M297.408 294.152V391.418L373.101 342.316C357.881 313.495 329.686 294.152 297.408 294.152Z" fill="url(#paint54_linear_203_2749)"/>
<path opacity="0.3" d="M272.735 63.1261C270.05 63.1261 267.539 63.9422 265.387 65.3603C264.872 57.0558 258.647 50.4959 251.032 50.4959C249.386 50.4959 247.814 50.8224 246.342 51.3835C244.218 43.7728 237.827 38.2433 230.268 38.2433C229.698 38.2433 229.137 38.2841 228.585 38.3453C221.522 38.835 215.646 44.14 213.604 51.3529C212.124 50.7816 210.542 50.4551 208.887 50.4551C201.273 50.4551 195.047 57.015 194.532 65.3195C192.309 63.8532 189.77 63.0812 187.184 63.0853C179.23 63.0853 172.783 70.2369 172.783 79.0515C172.783 87.8661 179.23 95.0177 187.184 95.0177C187.718 95.0177 188.233 94.9871 188.757 94.9157H210.864C211.508 94.9973 212.161 95.0585 212.832 95.0585C213.411 95.0585 213.982 95.0279 214.552 94.9667H246.122C246.444 94.9871 246.765 95.0177 247.087 95.0177C247.418 95.0177 247.731 94.9871 248.053 94.9667H271.163C271.678 95.0279 272.202 95.0585 272.735 95.0585C280.69 95.0585 287.127 87.9069 287.127 79.0923C287.136 70.2777 280.69 63.1261 272.735 63.1261Z" fill="url(#paint55_linear_203_2749)"/>
<defs>
<linearGradient id="paint0_linear_203_2749" x1="36834.3" y1="5485.95" x2="36772" y2="5050" gradientUnits="userSpaceOnUse">
<stop stop-color="#7700BB"/>
<stop offset="1" stop-color="#00008B"/>
</linearGradient>
<linearGradient id="paint1_linear_203_2749" x1="14.6592" y1="21409.9" x2="69593.7" y2="21409.9" gradientUnits="userSpaceOnUse">
<stop stop-color="#7700BB"/>
<stop offset="1"/>
</linearGradient>
<linearGradient id="paint2_linear_203_2749" x1="2519.52" y1="4919.8" x2="2346.84" y2="1200.69" gradientUnits="userSpaceOnUse">
<stop stop-color="#88CFDA"/>
<stop offset="0.0506" stop-color="#93D1D5"/>
<stop offset="0.2502" stop-color="#BAD7C2"/>
<stop offset="0.4481" stop-color="#D8DBB3"/>
<stop offset="0.6414" stop-color="#EEDEA8"/>
<stop offset="0.8279" stop-color="#FBE0A2"/>
<stop offset="1" stop-color="#FFE1A0"/>
</linearGradient>
<linearGradient id="paint3_linear_203_2749" x1="461.007" y1="475.476" x2="461.007" y2="8123.21" gradientUnits="userSpaceOnUse">
<stop stop-color="#7633FF"/>
<stop offset="0.1585" stop-color="#7137FF"/>
<stop offset="0.3535" stop-color="#6243FF"/>
<stop offset="0.5676" stop-color="#4957FF"/>
<stop offset="0.7937" stop-color="#2672FF"/>
<stop offset="1" stop-color="#0090FF"/>
</linearGradient>
<linearGradient id="paint4_linear_203_2749" x1="476.292" y1="-2079.82" x2="476.292" y2="5567.96" gradientUnits="userSpaceOnUse">
<stop stop-color="#7633FF"/>
<stop offset="0.1585" stop-color="#7137FF"/>
<stop offset="0.3535" stop-color="#6243FF"/>
<stop offset="0.5676" stop-color="#4957FF"/>
<stop offset="0.7937" stop-color="#2672FF"/>
<stop offset="1" stop-color="#0090FF"/>
</linearGradient>
<linearGradient id="paint5_linear_203_2749" x1="490.699" y1="-459.789" x2="490.699" y2="7188.06" gradientUnits="userSpaceOnUse">
<stop stop-color="#7633FF"/>
<stop offset="0.1585" stop-color="#7137FF"/>
<stop offset="0.3535" stop-color="#6243FF"/>
<stop offset="0.5676" stop-color="#4957FF"/>
<stop offset="0.7937" stop-color="#2672FF"/>
<stop offset="1" stop-color="#0090FF"/>
</linearGradient>
<linearGradient id="paint6_linear_203_2749" x1="505.075" y1="184.587" x2="505.075" y2="7832.41" gradientUnits="userSpaceOnUse">
<stop stop-color="#7633FF"/>
<stop offset="0.1585" stop-color="#7137FF"/>
<stop offset="0.3535" stop-color="#6243FF"/>
<stop offset="0.5676" stop-color="#4957FF"/>
<stop offset="0.7937" stop-color="#2672FF"/>
<stop offset="1" stop-color="#0090FF"/>
</linearGradient>
<linearGradient id="paint7_linear_203_2749" x1="520.314" y1="-2233.33" x2="520.314" y2="5414.43" gradientUnits="userSpaceOnUse">
<stop stop-color="#7633FF"/>
<stop offset="0.1585" stop-color="#7137FF"/>
<stop offset="0.3535" stop-color="#6243FF"/>
<stop offset="0.5676" stop-color="#4957FF"/>
<stop offset="0.7937" stop-color="#2672FF"/>
<stop offset="1" stop-color="#0090FF"/>
</linearGradient>
<linearGradient id="paint8_linear_203_2749" x1="534.766" y1="-3177.72" x2="534.766" y2="4470.1" gradientUnits="userSpaceOnUse">
<stop stop-color="#7633FF"/>
<stop offset="0.1585" stop-color="#7137FF"/>
<stop offset="0.3535" stop-color="#6243FF"/>
<stop offset="0.5676" stop-color="#4957FF"/>
<stop offset="0.7937" stop-color="#2672FF"/>
<stop offset="1" stop-color="#0090FF"/>
</linearGradient>
<linearGradient id="paint9_linear_203_2749" x1="549.12" y1="-297.135" x2="549.12" y2="7350.64" gradientUnits="userSpaceOnUse">
<stop stop-color="#7633FF"/>
<stop offset="0.1585" stop-color="#7137FF"/>
<stop offset="0.3535" stop-color="#6243FF"/>
<stop offset="0.5676" stop-color="#4957FF"/>
<stop offset="0.7937" stop-color="#2672FF"/>
<stop offset="1" stop-color="#0090FF"/>
</linearGradient>
<linearGradient id="paint10_linear_203_2749" x1="564.398" y1="-1514.21" x2="564.398" y2="6133.57" gradientUnits="userSpaceOnUse">
<stop stop-color="#7633FF"/>
<stop offset="0.1585" stop-color="#7137FF"/>
<stop offset="0.3535" stop-color="#6243FF"/>
<stop offset="0.5676" stop-color="#4957FF"/>
<stop offset="0.7937" stop-color="#2672FF"/>
<stop offset="1" stop-color="#0090FF"/>
</linearGradient>
<linearGradient id="paint11_linear_203_2749" x1="578.788" y1="-541.621" x2="578.788" y2="7106.21" gradientUnits="userSpaceOnUse">
<stop stop-color="#7633FF"/>
<stop offset="0.1585" stop-color="#7137FF"/>
<stop offset="0.3535" stop-color="#6243FF"/>
<stop offset="0.5676" stop-color="#4957FF"/>
<stop offset="0.7937" stop-color="#2672FF"/>
<stop offset="1" stop-color="#0090FF"/>
</linearGradient>
<linearGradient id="paint12_linear_203_2749" x1="593.21" y1="-2615.11" x2="593.21" y2="5032.68" gradientUnits="userSpaceOnUse">
<stop stop-color="#7633FF"/>
<stop offset="0.1585" stop-color="#7137FF"/>
<stop offset="0.3535" stop-color="#6243FF"/>
<stop offset="0.5676" stop-color="#4957FF"/>
<stop offset="0.7937" stop-color="#2672FF"/>
<stop offset="1" stop-color="#0090FF"/>
</linearGradient>
<linearGradient id="paint13_linear_203_2749" x1="607.579" y1="-1771.77" x2="607.579" y2="5875.98" gradientUnits="userSpaceOnUse">
<stop stop-color="#7633FF"/>
<stop offset="0.1585" stop-color="#7137FF"/>
<stop offset="0.3535" stop-color="#6243FF"/>
<stop offset="0.5676" stop-color="#4957FF"/>
<stop offset="0.7937" stop-color="#2672FF"/>
<stop offset="1" stop-color="#0090FF"/>
</linearGradient>
<linearGradient id="paint14_linear_203_2749" x1="17967.7" y1="27130.2" x2="17967.7" y2="581.367" gradientUnits="userSpaceOnUse">
<stop stop-color="#A1BAFF"/>
<stop offset="0.4332" stop-color="white"/>
</linearGradient>
<linearGradient id="paint15_linear_203_2749" x1="16043.5" y1="15119.8" x2="16043.5" y2="-472.919" gradientUnits="userSpaceOnUse">
<stop stop-color="#88CFDA"/>
<stop offset="0.0506" stop-color="#93D1D5"/>
<stop offset="0.2502" stop-color="#BAD7C2"/>
<stop offset="0.4481" stop-color="#D8DBB3"/>
<stop offset="0.6414" stop-color="#EEDEA8"/>
<stop offset="0.8279" stop-color="#FBE0A2"/>
<stop offset="1" stop-color="#FFE1A0"/>
</linearGradient>
<linearGradient id="paint16_linear_203_2749" x1="8460.57" y1="16245.2" x2="8460.57" y2="-4512.6" gradientUnits="userSpaceOnUse">
<stop stop-color="#88CFDA"/>
<stop offset="0.1838" stop-color="#98D1D2"/>
<stop offset="0.5428" stop-color="#C2D8BE"/>
<stop offset="1" stop-color="#FFE1A0"/>
</linearGradient>
<linearGradient id="paint17_linear_203_2749" x1="1214.87" y1="8849.4" x2="1214.87" y2="176.441" gradientUnits="userSpaceOnUse">
<stop stop-color="#7633FF"/>
<stop offset="0.1585" stop-color="#7137FF"/>
<stop offset="0.3535" stop-color="#6243FF"/>
<stop offset="0.5676" stop-color="#4957FF"/>
<stop offset="0.7937" stop-color="#2672FF"/>
<stop offset="1" stop-color="#0090FF"/>
</linearGradient>
<linearGradient id="paint18_linear_203_2749" x1="266.935" y1="594.109" x2="1005.74" y2="594.109" gradientUnits="userSpaceOnUse">
<stop stop-color="#7633FF"/>
<stop offset="0.1585" stop-color="#7137FF"/>
<stop offset="0.3535" stop-color="#6243FF"/>
<stop offset="0.5676" stop-color="#4957FF"/>
<stop offset="0.7937" stop-color="#2672FF"/>
<stop offset="1" stop-color="#0090FF"/>
</linearGradient>
<linearGradient id="paint19_linear_203_2749" x1="266.935" y1="621.487" x2="1005.74" y2="621.487" gradientUnits="userSpaceOnUse">
<stop stop-color="#7633FF"/>
<stop offset="0.1585" stop-color="#7137FF"/>
<stop offset="0.3535" stop-color="#6243FF"/>
<stop offset="0.5676" stop-color="#4957FF"/>
<stop offset="0.7937" stop-color="#2672FF"/>
<stop offset="1" stop-color="#0090FF"/>
</linearGradient>
<linearGradient id="paint20_linear_203_2749" x1="266.935" y1="652.368" x2="1005.74" y2="652.368" gradientUnits="userSpaceOnUse">
<stop stop-color="#7633FF"/>
<stop offset="0.1585" stop-color="#7137FF"/>
<stop offset="0.3535" stop-color="#6243FF"/>
<stop offset="0.5676" stop-color="#4957FF"/>
<stop offset="0.7937" stop-color="#2672FF"/>
<stop offset="1" stop-color="#0090FF"/>
</linearGradient>
<linearGradient id="paint21_linear_203_2749" x1="457.413" y1="3706.41" x2="14449.8" y2="3706.41" gradientUnits="userSpaceOnUse">
<stop stop-color="#270036"/>
<stop offset="0.5936" stop-color="#4F008B"/>
<stop offset="1" stop-color="#4C24B1"/>
</linearGradient>
<linearGradient id="paint22_linear_203_2749" x1="1140.82" y1="9237.39" x2="1140.82" y2="140.941" gradientUnits="userSpaceOnUse">
<stop stop-color="#7633FF"/>
<stop offset="0.1585" stop-color="#7137FF"/>
<stop offset="0.3535" stop-color="#6243FF"/>
<stop offset="0.5676" stop-color="#4957FF"/>
<stop offset="0.7937" stop-color="#2672FF"/>
<stop offset="1" stop-color="#0090FF"/>
</linearGradient>
<linearGradient id="paint23_linear_203_2749" x1="1158.76" y1="4854.42" x2="1158.76" y2="368.775" gradientUnits="userSpaceOnUse">
<stop stop-color="#7633FF"/>
<stop offset="0.1585" stop-color="#7137FF"/>
<stop offset="0.3535" stop-color="#6243FF"/>
<stop offset="0.5676" stop-color="#4957FF"/>
<stop offset="0.7937" stop-color="#2672FF"/>
<stop offset="1" stop-color="#0090FF"/>
</linearGradient>
<linearGradient id="paint24_linear_203_2749" x1="1177.56" y1="3436.09" x2="1177.56" y2="312.825" gradientUnits="userSpaceOnUse">
<stop stop-color="#311341"/>
<stop offset="0.2299" stop-color="#3113C2"/>
<stop offset="0.3479" stop-color="#2F18C5"/>
<stop offset="0.4931" stop-color="#2927CC"/>
<stop offset="0.6524" stop-color="#1F40D8"/>
<stop offset="0.8219" stop-color="#1263E9"/>
<stop offset="0.9978" stop-color="#008FFF"/>
<stop offset="1" stop-color="#0090FF"/>
</linearGradient>
<linearGradient id="paint25_linear_203_2749" x1="673.555" y1="5192.89" x2="673.555" y2="-160.518" gradientUnits="userSpaceOnUse">
<stop stop-color="#7633FF"/>
<stop offset="0.1585" stop-color="#7137FF"/>
<stop offset="0.3535" stop-color="#6243FF"/>
<stop offset="0.5676" stop-color="#4957FF"/>
<stop offset="0.7937" stop-color="#2672FF"/>
<stop offset="1" stop-color="#0090FF"/>
</linearGradient>
<linearGradient id="paint26_linear_203_2749" x1="682.024" y1="5635.21" x2="682.024" y2="166.536" gradientUnits="userSpaceOnUse">
<stop stop-color="#311341"/>
<stop offset="0.2299" stop-color="#3113C2"/>
<stop offset="0.3479" stop-color="#2F18C5"/>
<stop offset="0.4931" stop-color="#2927CC"/>
<stop offset="0.6524" stop-color="#1F40D8"/>
<stop offset="0.8219" stop-color="#1263E9"/>
<stop offset="0.9978" stop-color="#008FFF"/>
<stop offset="1" stop-color="#0090FF"/>
</linearGradient>
<linearGradient id="paint27_linear_203_2749" x1="94.0203" y1="1988.68" x2="2803.85" y2="1988.68" gradientUnits="userSpaceOnUse">
<stop stop-color="#7633FF"/>
<stop offset="0.1585" stop-color="#7137FF"/>
<stop offset="0.3535" stop-color="#6243FF"/>
<stop offset="0.5676" stop-color="#4957FF"/>
<stop offset="0.7937" stop-color="#2672FF"/>
<stop offset="1" stop-color="#0090FF"/>
</linearGradient>
<linearGradient id="paint28_linear_203_2749" x1="842.412" y1="776.447" x2="-394.316" y2="1484.25" gradientUnits="userSpaceOnUse">
<stop stop-color="#A1BAFF"/>
<stop offset="0.4332" stop-color="white"/>
</linearGradient>
<linearGradient id="paint29_linear_203_2749" x1="1085" y1="13549.7" x2="615.302" y2="3432.38" gradientUnits="userSpaceOnUse">
<stop stop-color="#A1BAFF"/>
<stop offset="0.4332" stop-color="white"/>
<stop offset="0.5794" stop-color="#FBFCFF"/>
<stop offset="0.7123" stop-color="#F0F4FF"/>
<stop offset="0.84" stop-color="#DEE7FF"/>
<stop offset="0.9637" stop-color="#C4D4FF"/>
<stop offset="1" stop-color="#BBCDFF"/>
</linearGradient>
<linearGradient id="paint30_linear_203_2749" x1="1853.41" y1="13652.9" x2="1383.89" y2="3534.75" gradientUnits="userSpaceOnUse">
<stop stop-color="#A1BAFF"/>
<stop offset="0.4332" stop-color="white"/>
<stop offset="0.5794" stop-color="#FBFCFF"/>
<stop offset="0.7123" stop-color="#F0F4FF"/>
<stop offset="0.84" stop-color="#DEE7FF"/>
<stop offset="0.9637" stop-color="#C4D4FF"/>
<stop offset="1" stop-color="#BBCDFF"/>
</linearGradient>
<linearGradient id="paint31_linear_203_2749" x1="1677.08" y1="863.61" x2="2905.35" y2="6399.22" gradientUnits="userSpaceOnUse">
<stop stop-color="#311341"/>
<stop offset="0.6346" stop-color="#3113C2"/>
<stop offset="0.6906" stop-color="#2F18C5"/>
<stop offset="0.7595" stop-color="#2927CC"/>
<stop offset="0.8351" stop-color="#1F40D8"/>
<stop offset="0.9155" stop-color="#1263E9"/>
<stop offset="0.999" stop-color="#008FFF"/>
<stop offset="1" stop-color="#0090FF"/>
</linearGradient>
<linearGradient id="paint32_linear_203_2749" x1="63.3818" y1="1033.86" x2="1448.49" y2="1033.86" gradientUnits="userSpaceOnUse">
<stop stop-color="#A1BAFF"/>
<stop offset="0.4332" stop-color="white"/>
</linearGradient>
<linearGradient id="paint33_linear_203_2749" x1="70.5525" y1="531.185" x2="1837.13" y2="531.185" gradientUnits="userSpaceOnUse">
<stop stop-color="#88CFDA"/>
<stop offset="0.0506" stop-color="#93D1D5"/>
<stop offset="0.2502" stop-color="#BAD7C2"/>
<stop offset="0.4481" stop-color="#D8DBB3"/>
<stop offset="0.6414" stop-color="#EEDEA8"/>
<stop offset="0.8279" stop-color="#FBE0A2"/>
<stop offset="1" stop-color="#FFE1A0"/>
</linearGradient>
<linearGradient id="paint34_linear_203_2749" x1="58.4102" y1="2719.68" x2="4342.03" y2="2719.68" gradientUnits="userSpaceOnUse">
<stop stop-color="#88CFDA"/>
<stop offset="0.0506" stop-color="#93D1D5"/>
<stop offset="0.2502" stop-color="#BAD7C2"/>
<stop offset="0.4481" stop-color="#D8DBB3"/>
<stop offset="0.6414" stop-color="#EEDEA8"/>
<stop offset="0.8279" stop-color="#FBE0A2"/>
<stop offset="1" stop-color="#FFE1A0"/>
</linearGradient>
<linearGradient id="paint35_linear_203_2749" x1="561.096" y1="488.699" x2="2404.98" y2="3685.03" gradientUnits="userSpaceOnUse">
<stop stop-color="#311341"/>
<stop offset="0.6346" stop-color="#3113C2"/>
<stop offset="0.6906" stop-color="#2F18C5"/>
<stop offset="0.7595" stop-color="#2927CC"/>
<stop offset="0.8351" stop-color="#1F40D8"/>
<stop offset="0.9155" stop-color="#1263E9"/>
<stop offset="0.999" stop-color="#008FFF"/>
<stop offset="1" stop-color="#0090FF"/>
</linearGradient>
<linearGradient id="paint36_linear_203_2749" x1="3158.46" y1="1945.41" x2="530.094" y2="1945.41" gradientUnits="userSpaceOnUse">
<stop stop-color="#7633FF"/>
<stop offset="0.1585" stop-color="#7137FF"/>
<stop offset="0.3535" stop-color="#6243FF"/>
<stop offset="0.5676" stop-color="#4957FF"/>
<stop offset="0.7937" stop-color="#2672FF"/>
<stop offset="1" stop-color="#0090FF"/>
</linearGradient>
<linearGradient id="paint37_linear_203_2749" x1="3029.93" y1="1409.09" x2="968.58" y2="10699.9" gradientUnits="userSpaceOnUse">
<stop stop-color="#3822D1"/>
<stop offset="0.1652" stop-color="#3527D3"/>
<stop offset="0.3684" stop-color="#2E36DA"/>
<stop offset="0.5916" stop-color="#214FE4"/>
<stop offset="0.8272" stop-color="#0F72F2"/>
<stop offset="1" stop-color="#0090FF"/>
</linearGradient>
<linearGradient id="paint38_linear_203_2749" x1="2274.66" y1="531.905" x2="561.243" y2="531.905" gradientUnits="userSpaceOnUse">
<stop stop-color="#88CFDA"/>
<stop offset="0.0506" stop-color="#93D1D5"/>
<stop offset="0.2502" stop-color="#BAD7C2"/>
<stop offset="0.4481" stop-color="#D8DBB3"/>
<stop offset="0.6414" stop-color="#EEDEA8"/>
<stop offset="0.8279" stop-color="#FBE0A2"/>
<stop offset="1" stop-color="#FFE1A0"/>
</linearGradient>
<linearGradient id="paint39_linear_203_2749" x1="466.689" y1="512.802" x2="1837.88" y2="512.802" gradientUnits="userSpaceOnUse">
<stop stop-color="#7633FF"/>
<stop offset="0.1585" stop-color="#7137FF"/>
<stop offset="0.3535" stop-color="#6243FF"/>
<stop offset="0.5676" stop-color="#4957FF"/>
<stop offset="0.7937" stop-color="#2672FF"/>
<stop offset="1" stop-color="#0090FF"/>
</linearGradient>
<linearGradient id="paint40_linear_203_2749" x1="2065.54" y1="343.803" x2="3060.83" y2="7072.41" gradientUnits="userSpaceOnUse">
<stop stop-color="#7633FF"/>
<stop offset="0.1585" stop-color="#7137FF"/>
<stop offset="0.3535" stop-color="#6243FF"/>
<stop offset="0.5676" stop-color="#4957FF"/>
<stop offset="0.7937" stop-color="#2672FF"/>
<stop offset="1" stop-color="#0090FF"/>
</linearGradient>
<linearGradient id="paint41_linear_203_2749" x1="-806.841" y1="2505.19" x2="5017.46" y2="1765.74" gradientUnits="userSpaceOnUse">
<stop stop-color="#5E60FF"/>
<stop offset="0.1814" stop-color="#5963FF"/>
<stop offset="0.4044" stop-color="#4A6AFF"/>
<stop offset="0.6491" stop-color="#3177FF"/>
<stop offset="0.9079" stop-color="#0E89FF"/>
<stop offset="1" stop-color="#0090FF"/>
</linearGradient>
<linearGradient id="paint42_linear_203_2749" x1="1294.8" y1="2334.83" x2="2957.97" y2="3285.52" gradientUnits="userSpaceOnUse">
<stop stop-color="#591DDB"/>
<stop offset="0.1609" stop-color="#5522DD"/>
<stop offset="0.3589" stop-color="#4931E1"/>
<stop offset="0.5762" stop-color="#364AE9"/>
<stop offset="0.8058" stop-color="#1B6DF4"/>
<stop offset="1" stop-color="#0090FF"/>
</linearGradient>
<linearGradient id="paint43_linear_203_2749" x1="2258" y1="414.248" x2="2258" y2="11542.8" gradientUnits="userSpaceOnUse">
<stop stop-color="#311341"/>
<stop offset="0.2299" stop-color="#3113C2"/>
<stop offset="0.3479" stop-color="#2F18C5"/>
<stop offset="0.4931" stop-color="#2927CC"/>
<stop offset="0.6524" stop-color="#1F40D8"/>
<stop offset="0.8219" stop-color="#1263E9"/>
<stop offset="0.9978" stop-color="#008FFF"/>
<stop offset="1" stop-color="#0090FF"/>
</linearGradient>
<linearGradient id="paint44_linear_203_2749" x1="1374.75" y1="121.568" x2="1374.75" y2="2180.8" gradientUnits="userSpaceOnUse">
<stop stop-color="#270036"/>
<stop offset="0.5936" stop-color="#4F008B"/>
<stop offset="1" stop-color="#4C24B1"/>
</linearGradient>
<linearGradient id="paint45_linear_203_2749" x1="1352.84" y1="121.568" x2="1352.84" y2="2180.8" gradientUnits="userSpaceOnUse">
<stop stop-color="#270036"/>
<stop offset="0.5936" stop-color="#4F008B"/>
<stop offset="1" stop-color="#4C24B1"/>
</linearGradient>
<linearGradient id="paint46_linear_203_2749" x1="160.109" y1="1287.39" x2="7796.66" y2="1287.39" gradientUnits="userSpaceOnUse">
<stop stop-color="#311341"/>
<stop offset="0.2299" stop-color="#3113C2"/>
<stop offset="0.3479" stop-color="#2F18C5"/>
<stop offset="0.4931" stop-color="#2927CC"/>
<stop offset="0.6524" stop-color="#1F40D8"/>
<stop offset="0.8219" stop-color="#1263E9"/>
<stop offset="0.9978" stop-color="#008FFF"/>
<stop offset="1" stop-color="#0090FF"/>
</linearGradient>
<linearGradient id="paint47_linear_203_2749" x1="124.837" y1="2507.42" x2="1299.61" y2="2507.42" gradientUnits="userSpaceOnUse">
<stop stop-color="#7633FF"/>
<stop offset="0.1106" stop-color="#6640FF"/>
<stop offset="0.5243" stop-color="#2F6BFF"/>
<stop offset="0.8331" stop-color="#0D86FF"/>
<stop offset="1" stop-color="#0090FF"/>
</linearGradient>
<linearGradient id="paint48_linear_203_2749" x1="142.125" y1="1170.6" x2="2742.59" y2="1170.6" gradientUnits="userSpaceOnUse">
<stop stop-color="#27004F"/>
<stop offset="1" stop-color="#004C81"/>
</linearGradient>
<linearGradient id="paint49_linear_203_2749" x1="90.9953" y1="1408.04" x2="2625.01" y2="1408.04" gradientUnits="userSpaceOnUse">
<stop stop-color="#27004F"/>
<stop offset="1" stop-color="#004C81"/>
</linearGradient>
<linearGradient id="paint50_linear_203_2749" x1="142.121" y1="885.321" x2="2702.97" y2="885.321" gradientUnits="userSpaceOnUse">
<stop stop-color="#27004F"/>
<stop offset="1" stop-color="#004C81"/>
</linearGradient>
<linearGradient id="paint51_linear_203_2749" x1="127.308" y1="2836.45" x2="4601.03" y2="2836.45" gradientUnits="userSpaceOnUse">
<stop stop-color="#A1BAFF"/>
<stop offset="0.4332" stop-color="white"/>
</linearGradient>
<linearGradient id="paint52_linear_203_2749" x1="5694.43" y1="1046.88" x2="-793.782" y2="1664.63" gradientUnits="userSpaceOnUse">
<stop stop-color="#A1BAFF"/>
<stop offset="0.4332" stop-color="white"/>
</linearGradient>
<linearGradient id="paint53_linear_203_2749" x1="210.259" y1="10020.8" x2="17744.4" y2="10020.8" gradientUnits="userSpaceOnUse">
<stop stop-color="#270036"/>
<stop offset="0.5936" stop-color="#4F008B"/>
<stop offset="1" stop-color="#4C24B1"/>
</linearGradient>
<linearGradient id="paint54_linear_203_2749" x1="-737.463" y1="9875.38" x2="6329.84" y2="3504.85" gradientUnits="userSpaceOnUse">
<stop stop-color="#7633FF"/>
<stop offset="0.1585" stop-color="#7137FF"/>
<stop offset="0.3535" stop-color="#6243FF"/>
<stop offset="0.5676" stop-color="#4957FF"/>
<stop offset="0.7937" stop-color="#2672FF"/>
<stop offset="1" stop-color="#0090FF"/>
</linearGradient>
<linearGradient id="paint55_linear_203_2749" x1="173.927" y1="2879.8" x2="11607.7" y2="2879.8" gradientUnits="userSpaceOnUse">
<stop stop-color="#A1BAFF"/>
<stop offset="0.0888" stop-color="#ACC2FF"/>
<stop offset="0.4988" stop-color="#D9E3FF"/>
<stop offset="0.816" stop-color="#F5F7FF"/>
<stop offset="1" stop-color="white"/>
</linearGradient>
</defs>
</svg>
